<svg version="1.1" id="Layer_1" xmlns="http://www.w3.org/2000/svg" xmlns:xlink="http://www.w3.org/1999/xlink" x="0px" y="0px"
	 width="100%" viewBox="0 0 1000 413" enable-background="new 0 0 1000 413" xml:space="preserve">
<path fill="#fefefe" opacity="1.000000" stroke="none" 
	d="
M622.000000,414.000000 
	C414.703247,414.000000 207.906464,414.000000 1.054848,414.000000 
	C1.054848,276.394257 1.054848,138.788483 1.054848,1.091355 
	C334.213470,1.091355 667.427002,1.091355 1000.820251,1.091355 
	C1000.820251,138.666489 1000.820251,276.333221 1000.820251,414.000000 
	C874.788391,414.000000 748.644226,414.000000 622.000000,414.000000 
M839.274414,217.252579 
	C848.315002,217.252579 857.355652,217.252579 866.460144,217.252579 
	C866.341187,216.727951 866.367126,216.343430 866.188904,216.127533 
	C848.969604,195.269394 831.697510,174.454758 814.518982,153.563095 
	C807.575317,145.118515 800.834167,136.507431 794.301331,127.377335 
	C818.555847,97.981506 842.810303,68.585678 868.046570,38.000008 
	C864.697327,38.000008 863.093445,37.999802 861.489624,38.000034 
	C848.163818,38.001995 834.744080,38.986019 821.539124,37.723721 
	C808.897583,36.515285 801.341492,41.373981 793.945923,51.181824 
	C779.753418,70.003510 764.015137,87.656075 749.026428,105.882706 
	C743.446716,112.667809 738.170227,119.702324 732.217102,126.847404 
	C731.769836,127.218506 731.322571,127.589615 729.955505,127.894989 
	C721.874329,127.894989 713.793152,127.894989 704.906555,127.894989 
	C706.021973,129.545990 706.581116,130.516159 707.274597,131.378235 
	C714.677917,140.581726 722.118958,149.754913 729.517944,158.961914 
	C744.629639,177.766220 759.760864,196.555374 774.720337,215.480133 
	C775.570557,216.555817 775.703674,219.394562 774.901367,220.404999 
	C755.754883,244.517395 736.429871,268.488007 717.149658,292.494354 
	C713.162720,297.458649 709.225037,302.462555 704.768066,308.073395 
	C724.981873,308.073395 744.137512,308.118256 763.291809,307.976318 
	C764.623840,307.966431 766.328247,306.876648 767.216431,305.771973 
	C790.670898,276.600159 814.040588,247.360123 837.856934,217.933777 
	C838.125488,217.739639 838.306091,217.483475 839.274414,217.252579 
M761.898254,217.263184 
	C765.530823,216.882111 763.359680,215.320343 762.453308,214.210144 
	C754.568542,204.551788 746.675049,194.900208 738.726746,185.294144 
	C723.990234,167.483902 709.245361,149.680328 694.423767,131.941010 
	C692.140625,129.208496 691.976196,127.287735 694.464905,124.315880 
	C712.926025,102.270561 731.181519,80.052917 749.466858,57.860775 
	C754.685974,51.526539 759.790833,45.098160 765.518921,38.006252 
	C747.004578,38.006252 729.531860,38.520096 712.113831,37.767700 
	C704.544739,37.440746 700.313843,40.595192 696.056824,45.888306 
	C681.697083,63.743244 667.082214,81.393143 652.543701,99.104019 
	C644.658020,108.710419 636.729370,118.281532 628.817444,127.871773 
	C629.121216,128.473343 629.267273,128.962921 629.566406,129.326508 
	C652.903259,157.694427 676.212341,186.085510 699.703735,214.324982 
	C701.044250,215.936462 703.873047,217.096344 706.025452,217.122375 
	C724.353577,217.344040 742.685425,217.254242 761.898254,217.263184 
M919.496338,239.994736 
	C925.402222,232.647797 931.308167,225.300873 937.151917,218.031219 
	C913.622559,188.694229 890.453979,159.745499 867.140930,130.913651 
	C865.916443,129.399323 863.474121,128.045746 861.582031,128.023300 
	C843.596985,127.810120 825.608276,127.896088 807.620667,127.921165 
	C806.761353,127.922363 805.902405,128.159393 804.713562,128.335403 
	C805.410034,129.304138 805.766296,129.851074 806.172729,130.357727 
	C828.337341,157.984634 850.441284,185.660782 872.753967,213.167648 
	C875.646301,216.733307 875.987000,219.021164 872.916504,222.757233 
	C857.814880,241.132614 843.024353,259.763733 828.133972,278.312561 
	C820.381836,287.969269 812.650330,297.642517 804.300903,308.068359 
	C824.732727,308.068359 844.149597,308.100372 863.565552,307.978607 
	C864.592224,307.972168 865.853149,306.858826 866.597656,305.933167 
	C884.109375,284.161255 901.564880,262.344238 919.496338,239.994736 
M255.201172,257.633820 
	C252.424362,273.628723 249.647568,289.623596 246.833054,305.835663 
	C255.517944,305.835663 263.782501,305.835663 272.463684,305.835663 
	C275.863647,286.077301 279.424164,266.471100 282.515778,246.791275 
	C283.508728,240.470520 280.104553,236.269287 273.796509,234.778030 
	C263.418030,232.324509 254.442261,235.312698 246.618652,242.323044 
	C245.409546,243.406464 244.024826,244.293900 241.891144,245.894882 
	C244.178314,233.137024 246.236267,221.657669 248.381912,209.689224 
	C239.297562,210.248138 230.922974,210.763397 222.479416,211.282883 
	C216.904388,242.931564 211.381790,274.282593 205.826706,305.818054 
	C214.589066,305.818054 222.851959,305.818054 231.417023,305.818054 
	C233.308304,295.042358 235.234192,284.436310 237.015884,273.806152 
	C238.532120,264.759766 241.548233,256.368408 248.137054,249.796005 
	C249.623154,248.313583 252.457382,248.182648 254.671021,247.429550 
	C255.118988,249.402649 255.720901,251.357788 255.954086,253.355957 
	C256.082977,254.460526 255.594070,255.637177 255.201172,257.633820 
M114.624908,248.998230 
	C112.481155,248.998230 110.337402,248.998230 107.902924,248.998230 
	C109.602646,239.473663 111.230881,230.349686 112.892296,221.039810 
	C124.353630,221.039810 135.488098,221.039810 146.916748,221.039810 
	C147.520355,217.684967 148.089355,214.522552 148.685272,211.210449 
	C127.907555,211.210449 107.486122,211.210449 86.803444,211.210449 
	C81.234863,242.778229 75.694611,274.185425 70.112991,305.827087 
	C92.728363,305.827087 115.154869,305.827087 137.819138,305.827087 
	C138.329239,302.549316 138.816147,299.420532 139.373459,295.839417 
	C125.805962,295.839417 112.890533,295.839417 99.665123,295.839417 
	C101.869545,283.366943 104.000618,271.309509 106.188461,258.930908 
	C115.922157,258.930908 125.364525,258.930908 134.828018,258.930908 
	C135.378647,255.496826 135.869781,252.433823 136.420639,248.998230 
	C129.216721,248.998230 122.407150,248.998230 114.624908,248.998230 
M343.128510,287.013794 
	C344.337524,294.857544 347.800415,301.162720 355.218018,304.789948 
	C375.569183,314.741791 402.177307,304.846924 410.107056,283.721313 
	C412.804199,276.535889 414.334229,268.606812 414.737976,260.930237 
	C415.555817,245.381744 408.277069,236.599380 392.943787,234.573090 
	C369.802277,231.514893 351.144562,239.985138 345.126251,265.850616 
	C343.600037,272.410095 343.706726,279.349518 343.128510,287.013794 
M575.707825,258.969147 
	C576.055054,257.455078 576.723328,255.935379 576.696899,254.427887 
	C576.537048,245.311371 581.120056,240.308441 590.093140,240.064026 
	C593.880981,239.960846 597.785278,240.232162 599.384399,244.306549 
	C601.098816,248.674637 600.430481,253.236374 596.469482,255.992126 
	C592.308533,258.887054 587.595520,261.066406 582.943115,263.156128 
	C577.966370,265.391510 572.539368,266.701782 567.734436,269.225922 
	C558.601624,274.023712 553.798584,281.781525 553.998596,292.314056 
	C554.137146,299.610840 557.677551,304.282562 564.705017,306.000458 
	C574.992920,308.515442 584.432129,306.850739 592.506714,299.596741 
	C598.105530,308.205994 612.565735,309.694000 626.356323,303.103760 
	C626.001465,301.264832 625.634033,299.360382 625.270813,297.478088 
	C618.251953,298.479187 617.006836,297.167175 618.198792,290.308197 
	C620.502563,277.050751 622.921204,263.812988 625.175903,250.547287 
	C626.483093,242.856033 623.948730,238.279968 616.401611,236.206665 
	C603.270447,232.599380 590.016174,232.766998 577.150635,237.412720 
	C568.489258,240.540314 564.878662,246.945419 565.282043,256.786560 
	C568.419983,257.465881 571.625427,258.159851 575.707825,258.969147 
M488.193237,283.032349 
	C489.046539,276.268036 486.346191,270.845428 481.190491,266.882843 
	C477.276642,263.874786 472.777283,261.623749 468.514282,259.076355 
	C465.104797,257.039001 461.378601,255.416580 458.295563,252.975281 
	C453.778473,249.398453 454.902405,243.440903 460.188202,241.052261 
	C469.508087,236.840622 478.142395,242.519501 477.856354,252.666656 
	C477.826202,253.736328 477.852295,254.807587 477.852295,256.156921 
	C482.125366,255.389206 486.003967,254.692368 489.789490,254.012253 
	C490.585693,244.495148 487.466736,238.354507 479.622681,235.980820 
	C465.156830,231.603302 451.482849,233.585815 439.940002,243.795883 
	C429.083923,253.398453 429.820221,267.181488 441.290955,275.909546 
	C444.434052,278.301117 448.107910,279.993378 451.529449,282.021301 
	C454.380859,283.711304 457.581757,285.037415 459.941467,287.255035 
	C461.627502,288.839508 463.415009,291.959991 462.927612,293.806610 
	C462.285400,296.239899 459.854645,299.097015 457.502228,300.029266 
	C446.830444,304.258514 436.796204,295.510468 438.841064,284.166321 
	C438.977112,283.411560 438.858826,282.610931 438.858826,281.548279 
	C435.478455,282.131134 432.417572,282.804077 429.320160,283.150360 
	C426.474670,283.468445 425.481812,284.917480 425.268982,287.665436 
	C424.600708,296.293640 428.969360,303.142853 437.661133,305.846252 
	C447.406311,308.877289 457.364929,308.881287 467.233551,306.454773 
	C479.092377,303.538879 486.170197,296.000244 488.193237,283.032349 
M537.148621,252.814026 
	C537.736633,249.930389 538.324707,247.046768 538.948120,243.989594 
	C542.791626,243.989594 546.265381,243.989594 550.040283,243.989594 
	C550.463257,241.289352 550.853149,238.800140 551.315491,235.848297 
	C547.317200,235.848297 543.907166,235.848297 540.277039,235.848297 
	C541.569275,228.273117 542.790771,221.112488 544.069214,213.618118 
	C538.092896,216.057587 532.754333,219.178391 527.016785,220.356781 
	C518.529846,222.099884 514.420410,226.413788 514.761841,235.022629 
	C514.771301,235.259872 514.379578,235.513016 513.927856,236.055298 
	C511.541931,236.055298 508.914429,236.055298 506.171600,236.055298 
	C505.684906,238.730606 505.247803,241.133194 504.758148,243.824661 
	C507.660675,243.971878 510.272034,244.104324 513.117432,244.248642 
	C512.225525,249.377014 511.366547,254.283386 510.519897,259.191895 
	C508.625641,270.173798 506.620148,281.138367 504.898041,292.147247 
	C504.075409,297.406250 505.002655,302.549683 510.476196,304.828430 
	C519.614075,308.632660 528.741760,308.104340 537.111572,302.530762 
	C539.242798,301.111481 540.631775,298.577454 542.361755,296.555664 
	C541.989746,295.936249 541.617737,295.316833 541.245728,294.697418 
	C538.767456,295.557068 536.203491,296.231934 533.835388,297.329407 
	C531.551331,298.387909 530.240967,297.955231 530.028137,295.473297 
	C529.902954,294.013092 530.217773,292.493958 530.473816,291.025604 
	C532.645325,278.572144 534.848877,266.124237 537.148621,252.814026 
M191.209732,215.609085 
	C186.907562,217.356598 182.739182,219.985382 178.274612,220.663254 
	C169.687820,221.967010 166.862396,227.034485 166.813080,234.808777 
	C166.811356,235.080399 166.511353,235.350113 166.165909,235.930756 
	C163.728668,235.930756 161.108505,235.930756 158.196991,235.930756 
	C157.715637,238.677811 157.280746,241.159683 156.748077,244.199615 
	C159.828262,244.199615 162.369644,244.199615 165.122818,244.199615 
	C164.526886,247.644073 164.029938,250.585434 163.507767,253.522324 
	C161.385162,265.460327 159.142075,277.378448 157.180344,289.342773 
	C156.343460,294.446716 155.750580,299.759155 160.485382,303.644196 
	C169.544952,311.077820 188.684967,306.855560 194.190079,295.779205 
	C191.637497,295.779205 189.297668,295.572876 187.018677,295.856110 
	C185.637222,296.027802 184.349899,296.957153 183.020294,297.546112 
	C182.733261,295.843597 181.978500,294.066498 182.236145,292.450836 
	C183.752853,282.939117 185.483704,273.461060 187.185898,263.979523 
	C188.376450,257.348022 189.636459,250.729019 190.893112,243.955292 
	C194.892838,243.955292 198.362610,243.955292 202.018875,243.955292 
	C202.486023,241.305969 202.913681,238.880585 203.439056,235.901062 
	C199.567429,235.901062 196.026520,235.901062 192.266586,235.901062 
	C193.573898,228.231277 194.789932,221.096939 196.083984,213.504913 
	C194.319962,214.219620 193.106949,214.711075 191.209732,215.609085 
M667.612854,284.175323 
	C668.794678,277.299194 669.472961,270.284271 671.318054,263.590942 
	C672.788086,258.258179 675.522217,253.236115 678.067810,248.266937 
	C678.628723,247.171921 680.761780,246.882263 682.170837,246.221802 
	C682.555176,247.834290 683.571655,249.614777 683.196838,251.025482 
	C682.323975,254.309967 680.781006,257.416382 679.332397,261.037811 
	C684.694458,261.037811 689.492126,261.105835 694.284790,260.980347 
	C695.242126,260.955261 696.819458,260.393372 697.026672,259.736877 
	C698.808105,254.091660 700.984009,248.452621 701.749268,242.641449 
	C702.393066,237.752625 698.852417,234.008469 693.947815,234.281998 
	C689.714050,234.518112 685.397217,236.202927 681.476440,238.021896 
	C679.083801,239.131882 677.370911,241.706985 674.852112,244.099579 
	C675.311401,240.518692 675.693848,237.536957 676.080200,234.525208 
	C667.235474,235.181824 658.863342,235.803360 650.389709,236.432434 
	C646.314636,259.564331 642.259766,282.581604 638.169189,305.801453 
	C646.827271,305.801453 655.254578,305.801453 663.761292,305.801453 
	C664.989258,298.724518 666.179688,291.864136 667.612854,284.175323 
M305.358002,242.823334 
	C301.696991,263.743927 298.035980,284.664551 294.335663,305.809784 
	C302.978760,305.809784 311.403595,305.809784 319.885284,305.809784 
	C324.076782,281.951965 328.231018,258.306152 332.427612,234.419312 
	C323.363678,235.112854 315.016083,235.751602 306.562347,236.398468 
	C306.213013,238.419464 305.904205,240.205963 305.358002,242.823334 
M715.810730,338.507263 
	C715.810730,345.272003 715.810730,352.036743 715.810730,359.051788 
	C717.940613,358.950165 719.513489,358.875153 721.218994,358.793762 
	C721.382751,355.744904 721.529968,353.004425 721.691223,350.002563 
	C725.279724,350.002563 728.423584,350.156006 731.547180,349.969849 
	C737.586548,349.609894 741.538025,345.507080 742.005310,339.368591 
	C742.511230,332.722717 738.970276,326.841888 733.213440,326.239807 
	C727.521729,325.644531 721.719116,326.109711 715.810730,326.109711 
	C715.810730,330.228027 715.810730,333.869873 715.810730,338.507263 
M411.374359,349.453247 
	C411.374359,341.341064 411.374359,333.228851 411.374359,324.831390 
	C409.647186,325.317719 407.821777,325.831696 405.854858,326.385529 
	C405.854858,330.477661 405.854858,334.227295 405.854858,338.069458 
	C398.104828,334.903351 393.093994,335.811554 389.830078,340.822723 
	C386.797638,345.478516 387.458923,352.142944 391.339081,356.030518 
	C395.277069,359.976044 399.634308,359.998230 404.557922,356.854279 
	C407.306183,357.887787 409.266907,358.625092 411.455688,359.448212 
	C411.455688,355.723816 411.455688,353.077972 411.374359,349.453247 
M782.198181,349.068268 
	C779.258545,342.473083 779.913330,336.417419 783.934082,333.013611 
	C787.587891,329.920441 792.000244,330.382111 797.427917,334.400391 
	C797.672119,334.581146 798.045654,334.587128 798.613220,334.745453 
	C799.423706,333.410828 800.267639,332.021027 801.069519,330.700531 
	C795.245544,323.707947 785.621460,322.998047 779.447937,328.925171 
	C772.297058,335.790710 772.617126,349.473419 780.076660,355.798431 
	C786.385315,361.147552 795.822754,359.854950 801.159973,352.705475 
	C800.255676,351.541656 799.305725,350.319122 798.366333,349.110199 
	C791.092712,354.286438 787.944519,354.362701 782.198181,349.068268 
M317.223297,225.732086 
	C320.989807,225.453751 324.897125,225.709518 328.487518,224.763062 
	C333.063904,223.556717 335.882233,218.172668 334.906952,213.708145 
	C333.878082,208.998215 330.032349,208.059082 326.103271,208.109543 
	C322.860535,208.151199 319.445740,208.559113 316.437439,209.686157 
	C312.494415,211.163391 310.986084,214.719025 310.908234,218.884323 
	C310.836487,222.725769 313.051422,224.568100 317.223297,225.732086 
M225.501343,352.679657 
	C225.501343,347.874481 225.501343,343.069275 225.501343,337.243073 
	C223.785873,337.696106 221.967896,338.176208 219.540222,338.817322 
	C215.113663,335.096313 210.000168,334.819122 205.665665,338.724426 
	C201.351685,342.611267 200.725189,349.799957 204.276382,354.665436 
	C207.903839,359.635406 212.451309,359.993958 218.380859,356.727173 
	C221.396500,357.781372 223.322021,358.454498 225.926239,359.364899 
	C225.765167,356.499207 225.682312,355.025177 225.501343,352.679657 
M116.013786,346.688202 
	C116.451935,357.827850 124.021881,361.710266 132.352829,356.678589 
	C135.355179,357.705139 137.344238,358.385254 139.599731,359.156464 
	C139.599731,351.138367 139.599731,344.564026 139.599731,337.006714 
	C137.692078,337.610413 135.981003,338.151886 133.682083,338.879395 
	C126.481499,332.998291 118.792404,335.608215 116.013786,346.688202 
M338.685669,358.144043 
	C342.352905,357.843414 346.020172,357.542786 350.253937,357.195740 
	C350.446167,360.050781 352.867676,359.629150 355.598694,358.158051 
	C355.598694,351.313080 355.598694,344.718201 355.598694,337.119293 
	C353.726837,337.660522 351.892029,338.191010 349.555939,338.866455 
	C344.585327,334.638763 338.185944,334.929443 334.289825,340.205261 
	C330.043060,345.956024 331.532379,353.151489 338.685669,358.144043 
M508.914368,342.759399 
	C507.138855,349.082916 508.429321,354.002319 512.633972,357.040283 
	C517.376282,360.466644 521.649536,359.138550 524.499390,356.595184 
	C527.296143,357.638763 529.291809,358.383392 531.603699,359.246033 
	C531.603699,351.197998 531.603699,344.614380 531.603699,337.078674 
	C529.758606,337.612091 528.040771,338.108704 525.611694,338.810944 
	C519.634705,333.995209 514.084167,334.761780 508.914368,342.759399 
M597.078796,358.887421 
	C598.953918,357.870667 600.829041,356.853943 602.959229,355.698944 
	C603.766785,359.309174 605.755127,360.106659 608.602539,358.075928 
	C608.602539,351.244080 608.602539,344.656403 608.602539,337.065826 
	C606.648132,337.655579 604.801636,338.212799 602.550659,338.892059 
	C598.600098,335.497589 594.548767,334.920441 590.170532,337.596497 
	C586.234619,340.002075 584.117859,345.368896 585.195190,350.210327 
	C586.379211,355.530731 590.145874,358.520599 597.078796,358.887421 
M146.549683,345.553467 
	C146.549683,349.968628 146.549683,354.383789 146.549683,358.839355 
	C148.635956,358.839355 150.084457,358.839355 151.938263,358.839355 
	C151.938263,354.711853 152.131729,350.733185 151.884628,346.782043 
	C151.630295,342.715271 154.209244,341.458557 157.317032,341.106812 
	C161.030594,340.686554 161.582626,343.511108 161.624420,346.363251 
	C161.684875,350.488342 161.639893,354.614960 161.639893,358.768372 
	C163.589096,358.768372 165.169571,358.768372 166.994492,358.768372 
	C166.994492,353.386810 167.162430,348.237030 166.951035,343.102936 
	C166.699509,336.994232 162.161057,334.316925 156.559265,336.813873 
	C155.070053,337.477692 153.712341,338.436523 152.294250,339.259918 
	C152.305908,338.874481 152.317551,338.489075 152.329193,338.103638 
	C150.248154,337.889496 148.167114,337.675385 145.578278,337.408997 
	C145.960556,340.334381 146.238632,342.462250 146.549683,345.553467 
M296.937836,346.901855 
	C296.452240,342.593506 299.356781,341.271332 302.691498,341.108734 
	C306.445618,340.925751 306.587524,344.004150 306.627686,346.743195 
	C306.685913,350.716919 306.642609,354.692139 306.642609,358.815430 
	C308.515869,358.815430 310.098511,358.815430 311.975830,358.815430 
	C311.975830,353.319794 312.181213,348.003326 311.919586,342.709991 
	C311.643799,337.129761 307.362579,334.556213 302.122284,336.608978 
	C300.444489,337.266174 298.921112,338.317566 297.327087,339.188629 
	C297.346588,338.817993 297.366089,338.447327 297.385559,338.076691 
	C295.250488,337.925354 293.115448,337.773987 291.458679,337.656555 
	C291.458679,345.325867 291.458679,352.062378 291.458679,358.858582 
	C293.596344,358.858582 295.053101,358.858582 296.937683,358.858582 
	C296.937683,355.087494 296.937683,351.453278 296.937836,346.901855 
M362.632538,346.523987 
	C362.632538,350.612091 362.632538,354.700226 362.632538,358.850891 
	C364.611267,358.850891 366.064880,358.850891 367.937805,358.850891 
	C367.937805,355.070007 367.923767,351.438049 367.941376,347.806274 
	C367.962860,343.379578 370.165588,340.735809 373.776123,341.047546 
	C378.198425,341.429291 377.546753,344.933075 377.621063,347.832489 
	C377.714081,351.463043 377.643402,355.097778 377.643402,358.781860 
	C379.561493,358.781860 381.144470,358.781860 382.971375,358.781860 
	C382.971375,353.249573 383.185791,347.931458 382.912476,342.638550 
	C382.626099,337.092834 378.289948,334.548462 373.061310,336.632782 
	C371.390961,337.298676 369.872559,338.345703 368.284637,339.218323 
	C368.312714,338.861298 368.340759,338.504272 368.368835,338.147247 
	C366.285614,337.909241 364.202393,337.671204 361.678101,337.382812 
	C362.025146,340.635864 362.287354,343.093903 362.632538,346.523987 
M685.659180,341.016937 
	C689.076843,341.132141 689.573486,343.557007 689.619446,346.189545 
	C689.691467,350.317047 689.638550,354.446716 689.638550,358.791534 
	C691.463318,358.791534 693.039429,358.791534 694.956055,358.791534 
	C694.956055,353.281342 695.196167,347.821411 694.887512,342.392700 
	C694.587524,337.116577 690.384460,334.657715 685.337280,336.529846 
	C683.656128,337.153442 682.136597,338.212952 680.543213,339.073212 
	C680.573669,338.753448 680.604187,338.433685 680.634644,338.113953 
	C678.442932,337.901337 676.251160,337.688721 674.343140,337.503662 
	C674.343140,345.069611 674.343140,351.826355 674.343140,358.790710 
	C676.441406,358.790710 678.006592,358.790710 679.937805,358.790710 
	C679.937805,355.151093 680.202393,351.667847 679.868713,348.242950 
	C679.479614,344.248627 680.921570,341.903687 685.659180,341.016937 
M70.427391,330.577118 
	C73.366898,330.812805 76.306404,331.048462 79.488068,331.303528 
	C79.488068,340.464111 79.488068,349.526917 79.488068,358.777191 
	C81.485657,358.777191 83.383133,358.777191 85.497459,358.777191 
	C85.497459,349.494873 85.497459,340.438080 85.497459,331.209015 
	C88.462311,331.066376 91.220490,330.933685 93.839264,330.807709 
	C93.839264,329.070374 93.839264,327.666931 93.839264,326.164917 
	C86.131653,326.164917 78.703026,326.164917 71.304932,326.164917 
	C71.005447,327.464050 70.745705,328.590759 70.427391,330.577118 
M269.753815,358.093842 
	C276.512451,361.300049 284.052643,356.303345 285.319519,350.182068 
	C286.651550,343.745972 282.880463,337.476318 276.552795,336.130554 
	C271.390839,335.032715 266.080750,337.815582 263.887329,342.768127 
	C261.411041,348.359406 263.108246,353.339935 269.753815,358.093842 
M470.429138,335.982483 
	C464.301483,336.626007 460.554291,339.304871 459.315216,344.287201 
	C458.136902,349.025085 459.231995,353.239288 463.098114,356.436646 
	C466.981232,359.648041 471.290833,359.864777 475.684906,357.657776 
	C479.763184,355.609406 482.205536,350.517700 481.562744,345.891357 
	C480.837280,340.669983 477.600952,337.562714 470.429138,335.982483 
M663.427490,337.801208 
	C662.527161,337.394531 661.658386,336.885010 660.721436,336.597595 
	C654.123718,334.573883 647.579346,338.307373 646.143677,344.873474 
	C644.749451,351.250183 648.851868,357.689209 655.077087,358.895081 
	C661.585571,360.155792 667.747192,355.531281 668.558472,348.734314 
	C669.077576,344.384216 667.340759,340.954742 663.427490,337.801208 
M753.146118,326.016663 
	C751.760254,326.096252 750.374451,326.175812 748.892456,326.260895 
	C748.892456,337.450714 748.892456,348.147522 748.892456,358.753479 
	C756.131287,358.753479 763.031616,358.753479 770.206970,358.753479 
	C770.296753,357.130585 770.373596,355.741180 770.475098,353.906006 
	C764.990173,353.906006 759.925110,353.906006 754.016541,353.906006 
	C754.016541,344.416565 754.016541,335.344757 753.146118,326.016663 
M435.412445,326.003723 
	C434.928680,326.331909 434.024475,326.657196 434.022156,326.988770 
	C433.948029,337.594604 433.961212,348.201080 433.961212,358.751862 
	C441.075409,358.751862 448.002533,358.751862 455.216156,358.751862 
	C455.292908,357.120514 455.358459,355.726288 455.446594,353.852356 
	C449.959381,353.852356 444.885895,353.852356 439.443420,353.852356 
	C439.443420,345.416107 439.375549,337.437592 439.485107,329.461517 
	C439.517639,327.094147 439.206329,325.492950 435.412445,326.003723 
M230.330307,341.306244 
	C231.314117,342.684967 232.936188,343.973572 233.146362,345.461578 
	C233.560165,348.390961 232.900330,351.462036 233.215714,354.417847 
	C233.636124,358.358246 236.985931,359.840515 242.189713,358.970001 
	C246.111313,358.313934 245.519974,355.838501 245.021851,353.132782 
	C237.944382,354.746338 236.334885,351.634399 239.098465,342.175751 
	C240.950012,342.431976 242.810852,342.689514 244.810364,342.966217 
	C244.810364,340.759247 244.810364,339.016174 244.810364,337.142242 
	C242.659103,337.013519 240.705490,336.896576 238.596222,336.770355 
	C238.596222,334.488373 238.596222,332.383148 238.596222,330.200958 
	C236.847412,329.769867 235.262558,329.379211 234.313690,329.145325 
	C232.833344,333.144287 231.475815,336.811523 230.330307,341.306244 
M623.181946,353.910095 
	C619.254028,350.291473 621.857544,346.156677 621.479309,341.985840 
	C624.014343,342.420532 625.759277,342.719757 627.731384,343.057953 
	C627.731384,340.883942 627.731384,339.019531 627.731384,337.153961 
	C625.518005,337.000763 623.590942,336.867401 621.638184,336.732239 
	C621.638184,334.454132 621.638184,332.479950 621.638184,330.257751 
	C619.948303,329.813171 618.268982,329.371368 616.576111,328.925995 
	C615.140625,332.371552 617.957947,336.847839 613.240112,338.821777 
	C613.092590,338.883423 613.597290,340.846924 614.013123,341.833099 
	C614.656494,343.358887 615.937744,344.748932 616.134644,346.299866 
	C616.466614,348.915039 615.908081,351.637573 616.182434,354.267120 
	C616.601746,358.284637 619.742615,359.780334 625.037842,358.990662 
	C628.887146,358.416656 628.590515,355.957794 628.047607,353.052155 
	C626.583374,353.386078 625.307556,353.677032 623.181946,353.910095 
M576.237671,336.987579 
	C572.129395,336.987579 568.021118,336.987579 563.758301,336.987579 
	C563.477173,338.853760 563.268616,340.238678 562.996155,342.047760 
	C566.487610,342.047760 569.560364,342.047760 572.774048,342.047760 
	C570.104919,348.410767 561.111389,350.392578 561.934082,358.786377 
	C568.262817,358.786377 574.028870,358.786377 579.808228,358.786377 
	C580.143555,357.172974 580.434021,355.775299 580.821899,353.908691 
	C576.714417,353.908691 572.974609,353.908691 568.482605,353.908691 
	C572.182190,349.952332 575.430115,346.700836 578.413696,343.222595 
	C581.117371,340.070679 580.569153,337.910461 576.237671,336.987579 
M493.478119,336.572449 
	C486.980042,339.973969 484.464447,345.199158 486.443909,351.183258 
	C488.238251,356.607758 493.864990,359.857513 499.423981,358.823639 
	C502.878601,358.181152 504.416687,356.739532 502.363007,353.185486 
	C498.524414,354.479950 494.711334,354.720123 492.549255,350.897522 
	C491.586304,349.195007 491.338867,345.334564 492.334900,344.610382 
	C495.170166,342.548859 498.811737,341.596222 502.135956,340.207184 
	C504.680328,338.359772 503.139191,336.840881 500.141479,336.385742 
	C498.220245,336.094086 496.217529,336.339233 493.478119,336.572449 
M108.934784,337.102051 
	C107.548073,337.627136 106.161354,338.152222 104.774635,338.677338 
	C104.821198,338.223694 104.867752,337.770050 104.914314,337.316406 
	C102.945320,337.058350 100.976334,336.800323 99.455734,336.601044 
	C99.455734,344.503357 99.455734,351.666595 99.455734,358.790527 
	C101.633377,358.790527 103.057564,358.790527 104.847656,358.790527 
	C104.847656,355.614929 104.843300,352.663452 104.848518,349.711975 
	C104.861488,342.376495 104.863235,342.376495 112.240501,341.735870 
	C112.795021,339.431763 114.330727,336.734192 108.934784,337.102051 
M179.803574,344.720367 
	C179.189789,344.016998 178.576019,343.313629 177.626740,342.225830 
	C179.746735,341.536957 181.395309,341.001251 183.344116,340.368011 
	C182.841537,338.816956 182.363800,337.342590 181.321213,334.125000 
	C178.047211,337.032349 174.916565,338.753693 173.446930,341.398132 
	C171.787537,344.384003 173.975174,346.918060 176.862747,348.681946 
	C178.226929,349.515259 179.147415,351.074890 180.268936,352.305450 
	C178.654205,352.873108 177.037445,353.435089 175.426102,354.012207 
	C174.982559,354.171143 174.555298,354.375580 173.969421,354.622986 
	C174.253311,356.087830 174.523880,357.483917 174.803345,358.925964 
	C179.451141,359.225372 183.281982,358.250275 184.892609,353.858215 
	C186.417160,349.700928 184.221359,346.861664 179.803574,344.720367 
M196.063919,358.281738 
	C196.063919,347.548798 196.063919,336.815857 196.063919,326.229431 
	C193.907700,326.229431 192.466537,326.229431 190.798462,326.229431 
	C190.798462,337.167267 190.798462,347.878387 190.798462,358.944153 
	C192.438385,358.944153 193.896835,358.944153 196.063919,358.281738 
M537.659241,345.496643 
	C537.659241,349.907806 537.659241,354.318970 537.659241,358.731842 
	C539.727844,358.731842 541.300842,358.731842 542.849731,358.731842 
	C542.849731,347.743530 542.849731,337.023804 542.849731,326.301147 
	C540.973755,326.301147 539.418213,326.301147 537.668091,326.301147 
	C537.668091,332.564728 537.668091,338.531616 537.659241,345.496643 
M636.741699,336.992432 
	C636.013428,337.613708 634.667236,338.220398 634.652222,338.858490 
	C634.496948,345.436340 634.556824,352.019226 634.556824,358.699219 
	C636.507263,358.699219 638.199158,358.699219 640.007874,358.699219 
	C640.007874,352.117889 640.099609,345.840698 639.903259,339.572479 
	C639.875610,338.689575 638.440002,337.850769 636.741699,336.992432 
M550.543762,351.398834 
	C550.543762,353.831604 550.543762,356.264343 550.543762,358.850677 
	C552.467346,358.850677 554.062622,358.850677 555.802612,358.850677 
	C555.802612,351.506927 555.802612,344.314392 555.802612,336.915283 
	C553.936035,337.038025 552.366638,337.141235 550.543945,337.261108 
	C550.543945,341.866577 550.543945,346.150574 550.543762,351.398834 
M257.008789,351.441986 
	C257.008789,346.684692 257.008789,341.927429 257.008789,336.931152 
	C254.967010,337.040588 253.398315,337.124695 251.586029,337.221832 
	C251.586029,344.571747 251.586029,351.615570 251.586029,358.671570 
	C253.547287,358.671570 255.239532,358.671570 257.012970,358.671570 
	C257.012970,356.365936 257.012970,354.394135 257.008789,351.441986 
M555.520508,333.445862 
	C555.497314,331.880737 555.883911,330.117981 555.267090,328.839233 
	C554.985535,328.255524 552.508911,328.184143 551.431763,328.709106 
	C550.616150,329.106628 550.440674,330.817444 549.980286,331.943817 
	C551.611267,332.588989 553.242188,333.234131 555.520508,333.445862 
M253.540848,334.019989 
	C254.916107,333.185394 256.291382,332.350800 257.666626,331.516205 
	C256.888977,330.385406 256.314972,328.639496 255.276764,328.295715 
	C254.225662,327.947784 251.696350,328.843445 251.611359,329.447266 
	C251.414520,330.845581 252.302948,332.396667 253.540848,334.019989 
M639.479370,328.773102 
	C637.760193,329.031097 635.975037,329.111603 634.380554,329.704651 
	C634.080261,329.816376 634.100647,332.567169 634.750000,333.045715 
	C635.767944,333.795807 638.138184,334.310883 638.693115,333.732758 
	C639.642822,332.743469 639.631592,330.831757 639.479370,328.773102 
z"/>
<path fill="#94EB58" opacity="1.000000" stroke="none" 
	d="
M761.457214,217.260468 
	C742.685425,217.254242 724.353577,217.344040 706.025452,217.122375 
	C703.873047,217.096344 701.044250,215.936462 699.703735,214.324982 
	C676.212341,186.085510 652.903259,157.694427 629.566406,129.326508 
	C629.267273,128.962921 629.121216,128.473343 628.817444,127.871773 
	C636.729370,118.281532 644.658020,108.710419 652.543701,99.104019 
	C667.082214,81.393143 681.697083,63.743244 696.056824,45.888306 
	C700.313843,40.595192 704.544739,37.440746 712.113831,37.767700 
	C729.531860,38.520096 747.004578,38.006252 765.518921,38.006252 
	C759.790833,45.098160 754.685974,51.526539 749.466858,57.860775 
	C731.181519,80.052917 712.926025,102.270561 694.464905,124.315880 
	C691.976196,127.287735 692.140625,129.208496 694.423767,131.941010 
	C709.245361,149.680328 723.990234,167.483902 738.726746,185.294144 
	C746.675049,194.900208 754.568542,204.551788 762.453308,214.210144 
	C763.359680,215.320343 765.530823,216.882111 761.457214,217.260468 
z"/>
<path fill="#D26147" opacity="1.000000" stroke="none" 
	d="
M919.263550,240.265121 
	C901.564880,262.344238 884.109375,284.161255 866.597656,305.933167 
	C865.853149,306.858826 864.592224,307.972168 863.565552,307.978607 
	C844.149597,308.100372 824.732727,308.068359 804.300903,308.068359 
	C812.650330,297.642517 820.381836,287.969269 828.133972,278.312561 
	C843.024353,259.763733 857.814880,241.132614 872.916504,222.757233 
	C875.987000,219.021164 875.646301,216.733307 872.753967,213.167648 
	C850.441284,185.660782 828.337341,157.984634 806.172729,130.357727 
	C805.766296,129.851074 805.410034,129.304138 804.713562,128.335403 
	C805.902405,128.159393 806.761353,127.922363 807.620667,127.921165 
	C825.608276,127.896088 843.596985,127.810120 861.582031,128.023300 
	C863.474121,128.045746 865.916443,129.399323 867.140930,130.913651 
	C890.453979,159.745499 913.622559,188.694229 937.151917,218.031219 
	C931.308167,225.300873 925.402222,232.647797 919.263550,240.265121 
z"/>
<path fill="#D26147" opacity="1.000000" stroke="none" 
	d="
M837.424805,218.131775 
	C814.040588,247.360123 790.670898,276.600159 767.216431,305.771973 
	C766.328247,306.876648 764.623840,307.966431 763.291809,307.976318 
	C744.137512,308.118256 724.981873,308.073395 704.768066,308.073395 
	C709.225037,302.462555 713.162720,297.458649 717.149658,292.494354 
	C736.429871,268.488007 755.754883,244.517395 774.901367,220.404999 
	C775.703674,219.394562 775.570557,216.555817 774.720337,215.480133 
	C759.760864,196.555374 744.629639,177.766220 729.517944,158.961914 
	C722.118958,149.754913 714.677917,140.581726 707.274597,131.378235 
	C706.581116,130.516159 706.021973,129.545990 704.906555,127.894989 
	C713.793152,127.894989 721.874329,127.894989 730.576843,128.232178 
	C740.095581,139.498993 748.957275,150.457993 757.898621,161.351532 
	C772.524597,179.170914 787.138306,197.001694 801.960205,214.657211 
	C803.407837,216.381592 806.239197,217.764359 808.486755,217.854980 
	C818.120850,218.243378 827.776794,218.088577 837.424805,218.131775 
z"/>
<path fill="#94EB58" opacity="1.000000" stroke="none" 
	d="
M732.755493,126.623077 
	C738.170227,119.702324 743.446716,112.667809 749.026428,105.882706 
	C764.015137,87.656075 779.753418,70.003510 793.945923,51.181824 
	C801.341492,41.373981 808.897583,36.515285 821.539124,37.723721 
	C834.744080,38.986019 848.163818,38.001995 861.489624,38.000034 
	C863.093445,37.999802 864.697327,38.000008 868.046570,38.000008 
	C842.810303,68.585678 818.555847,97.981506 793.707031,127.666138 
	C784.367920,127.719429 775.623169,127.483925 766.421509,127.187309 
	C754.894836,126.958488 743.825195,126.790787 732.755493,126.623077 
z"/>
<path fill="#030303" opacity="1.000000" stroke="none" 
	d="
M255.292419,257.207581 
	C255.594070,255.637177 256.082977,254.460526 255.954086,253.355957 
	C255.720901,251.357788 255.118988,249.402649 254.671021,247.429565 
	C252.457382,248.182648 249.623154,248.313583 248.137054,249.796005 
	C241.548233,256.368408 238.532120,264.759766 237.015884,273.806152 
	C235.234192,284.436310 233.308304,295.042358 231.417023,305.818054 
	C222.851959,305.818054 214.589066,305.818054 205.826706,305.818054 
	C211.381790,274.282593 216.904388,242.931564 222.479416,211.282883 
	C230.922974,210.763397 239.297562,210.248138 248.381912,209.689224 
	C246.236267,221.657669 244.178314,233.137024 241.891144,245.894882 
	C244.024826,244.293900 245.409546,243.406464 246.618652,242.323044 
	C254.442261,235.312698 263.418030,232.324509 273.796509,234.778030 
	C280.104553,236.269287 283.508728,240.470520 282.515778,246.791275 
	C279.424164,266.471100 275.863647,286.077301 272.463684,305.835663 
	C263.782501,305.835663 255.517944,305.835663 246.833054,305.835663 
	C249.647568,289.623596 252.424362,273.628723 255.292419,257.207581 
z"/>
<path fill="#020202" opacity="1.000000" stroke="none" 
	d="
M115.111244,248.998230 
	C122.407150,248.998230 129.216721,248.998230 136.420639,248.998230 
	C135.869781,252.433823 135.378647,255.496826 134.828018,258.930908 
	C125.364525,258.930908 115.922157,258.930908 106.188461,258.930908 
	C104.000618,271.309509 101.869545,283.366943 99.665123,295.839417 
	C112.890533,295.839417 125.805962,295.839417 139.373459,295.839417 
	C138.816147,299.420532 138.329239,302.549316 137.819138,305.827087 
	C115.154869,305.827087 92.728363,305.827087 70.112991,305.827087 
	C75.694611,274.185425 81.234863,242.778229 86.803444,211.210449 
	C107.486122,211.210449 127.907555,211.210449 148.685272,211.210449 
	C148.089355,214.522552 147.520355,217.684967 146.916748,221.039810 
	C135.488098,221.039810 124.353630,221.039810 112.892296,221.039810 
	C111.230881,230.349686 109.602646,239.473663 107.902924,248.998230 
	C110.337402,248.998230 112.481155,248.998230 115.111244,248.998230 
z"/>
<path fill="#040404" opacity="1.000000" stroke="none" 
	d="
M343.095795,286.564087 
	C343.706726,279.349518 343.600037,272.410095 345.126251,265.850616 
	C351.144562,239.985138 369.802277,231.514893 392.943787,234.573090 
	C408.277069,236.599380 415.555817,245.381744 414.737976,260.930237 
	C414.334229,268.606812 412.804199,276.535889 410.107056,283.721313 
	C402.177307,304.846924 375.569183,314.741791 355.218018,304.789948 
	C347.800415,301.162720 344.337524,294.857544 343.095795,286.564087 
M387.456512,269.940216 
	C388.071014,262.999268 388.934082,256.067657 389.196106,249.113419 
	C389.328827,245.591385 389.392029,240.960083 384.713776,240.262238 
	C380.366333,239.613754 378.184204,243.638901 377.169739,247.021149 
	C374.415619,256.203339 371.701721,265.472076 370.087097,274.897552 
	C368.842194,282.164978 369.054138,289.724976 369.161774,297.147034 
	C369.184998,298.750092 371.276398,301.134979 372.895081,301.649323 
	C374.217987,302.069641 376.747528,300.649567 377.864227,299.312317 
	C379.628937,297.199127 381.142365,294.612457 381.906097,291.978058 
	C383.933929,284.983337 385.503937,277.855927 387.456512,269.940216 
z"/>
<path fill="#040404" opacity="1.000000" stroke="none" 
	d="
M575.269409,258.911499 
	C571.625427,258.159851 568.419983,257.465881 565.282043,256.786560 
	C564.878662,246.945419 568.489258,240.540314 577.150635,237.412720 
	C590.016174,232.766998 603.270447,232.599380 616.401611,236.206665 
	C623.948730,238.279968 626.483093,242.856033 625.175903,250.547287 
	C622.921204,263.812988 620.502563,277.050751 618.198792,290.308197 
	C617.006836,297.167175 618.251953,298.479187 625.270813,297.478088 
	C625.634033,299.360382 626.001465,301.264832 626.356323,303.103760 
	C612.565735,309.694000 598.105530,308.205994 592.506714,299.596741 
	C584.432129,306.850739 574.992920,308.515442 564.705017,306.000458 
	C557.677551,304.282562 554.137146,299.610840 553.998596,292.314056 
	C553.798584,281.781525 558.601624,274.023712 567.734436,269.225922 
	C572.539368,266.701782 577.966370,265.391510 582.943115,263.156128 
	C587.595520,261.066406 592.308533,258.887054 596.469482,255.992126 
	C600.430481,253.236374 601.098816,248.674637 599.384399,244.306549 
	C597.785278,240.232162 593.880981,239.960846 590.093140,240.064026 
	C581.120056,240.308441 576.537048,245.311371 576.696899,254.427887 
	C576.723328,255.935379 576.055054,257.455078 575.269409,258.911499 
M594.034302,282.491608 
	C595.035461,276.761719 596.036682,271.031830 597.036133,265.311798 
	C585.072021,269.865204 579.525269,278.363770 580.057617,290.541107 
	C580.151367,292.685455 581.693848,296.384583 582.878174,296.513672 
	C585.090088,296.754761 588.447754,295.541290 589.670898,293.781067 
	C591.768311,290.762665 592.591125,286.858612 594.034302,282.491608 
z"/>
<path fill="#EFB018" opacity="1.000000" stroke="none" 
	d="
M732.486328,126.735245 
	C743.825195,126.790787 754.894836,126.958488 766.457214,127.530266 
	C771.253479,133.744217 775.395569,139.682388 779.890564,145.340256 
	C794.292358,163.467773 808.776550,181.530533 823.333923,199.533371 
	C828.192810,205.542252 833.368042,211.295303 838.398682,217.165283 
	C838.306091,217.483475 838.125488,217.739639 837.640869,218.032776 
	C827.776794,218.088577 818.120850,218.243378 808.486755,217.854980 
	C806.239197,217.764359 803.407837,216.381592 801.960205,214.657211 
	C787.138306,197.001694 772.524597,179.170914 757.898621,161.351532 
	C748.957275,150.457993 740.095581,139.498993 731.036743,128.265045 
	C731.322571,127.589615 731.769836,127.218506 732.486328,126.735245 
z"/>
<path fill="#040404" opacity="1.000000" stroke="none" 
	d="
M488.148743,283.428467 
	C486.170197,296.000244 479.092377,303.538879 467.233551,306.454773 
	C457.364929,308.881287 447.406311,308.877289 437.661133,305.846252 
	C428.969360,303.142853 424.600708,296.293640 425.268982,287.665436 
	C425.481812,284.917480 426.474670,283.468445 429.320160,283.150360 
	C432.417572,282.804077 435.478455,282.131134 438.858826,281.548279 
	C438.858826,282.610931 438.977112,283.411560 438.841064,284.166321 
	C436.796204,295.510468 446.830444,304.258514 457.502228,300.029266 
	C459.854645,299.097015 462.285400,296.239899 462.927612,293.806610 
	C463.415009,291.959991 461.627502,288.839508 459.941467,287.255035 
	C457.581757,285.037415 454.380859,283.711304 451.529449,282.021301 
	C448.107910,279.993378 444.434052,278.301117 441.290955,275.909546 
	C429.820221,267.181488 429.083923,253.398453 439.940002,243.795883 
	C451.482849,233.585815 465.156830,231.603302 479.622681,235.980820 
	C487.466736,238.354507 490.585693,244.495148 489.789490,254.012253 
	C486.003967,254.692368 482.125366,255.389206 477.852295,256.156921 
	C477.852295,254.807587 477.826202,253.736328 477.856354,252.666656 
	C478.142395,242.519501 469.508087,236.840622 460.188202,241.052261 
	C454.902405,243.440903 453.778473,249.398453 458.295563,252.975281 
	C461.378601,255.416580 465.104797,257.039001 468.514282,259.076355 
	C472.777283,261.623749 477.276642,263.874786 481.190491,266.882843 
	C486.346191,270.845428 489.046539,276.268036 488.148743,283.428467 
z"/>
<path fill="#FAD441" opacity="1.000000" stroke="none" 
	d="
M838.836548,217.208923 
	C833.368042,211.295303 828.192810,205.542252 823.333923,199.533371 
	C808.776550,181.530533 794.292358,163.467773 779.890564,145.340256 
	C775.395569,139.682388 771.253479,133.744217 766.914185,127.591385 
	C775.623169,127.483925 784.367920,127.719429 793.556763,127.963531 
	C800.834167,136.507431 807.575317,145.118515 814.518982,153.563095 
	C831.697510,174.454758 848.969604,195.269394 866.188904,216.127533 
	C866.367126,216.343430 866.341187,216.727951 866.460144,217.252579 
	C857.355652,217.252579 848.315002,217.252579 838.836548,217.208923 
z"/>
<path fill="#030303" opacity="1.000000" stroke="none" 
	d="
M537.095703,253.244354 
	C534.848877,266.124237 532.645325,278.572144 530.473816,291.025604 
	C530.217773,292.493958 529.902954,294.013092 530.028137,295.473297 
	C530.240967,297.955231 531.551331,298.387909 533.835388,297.329407 
	C536.203491,296.231934 538.767456,295.557068 541.245728,294.697418 
	C541.617737,295.316833 541.989746,295.936249 542.361755,296.555664 
	C540.631775,298.577454 539.242798,301.111481 537.111572,302.530762 
	C528.741760,308.104340 519.614075,308.632660 510.476196,304.828430 
	C505.002655,302.549683 504.075409,297.406250 504.898041,292.147247 
	C506.620148,281.138367 508.625641,270.173798 510.519897,259.191895 
	C511.366547,254.283386 512.225525,249.377014 513.117432,244.248642 
	C510.272034,244.104324 507.660675,243.971878 504.758148,243.824661 
	C505.247803,241.133194 505.684906,238.730606 506.171600,236.055298 
	C508.914429,236.055298 511.541931,236.055298 513.927856,236.055298 
	C514.379578,235.513016 514.771301,235.259872 514.761841,235.022629 
	C514.420410,226.413788 518.529846,222.099884 527.016785,220.356781 
	C532.754333,219.178391 538.092896,216.057587 544.069214,213.618118 
	C542.790771,221.112488 541.569275,228.273117 540.277039,235.848297 
	C543.907166,235.848297 547.317200,235.848297 551.315491,235.848297 
	C550.853149,238.800140 550.463257,241.289352 550.040283,243.989594 
	C546.265381,243.989594 542.791626,243.989594 538.948120,243.989594 
	C538.324707,247.046768 537.736633,249.930389 537.095703,253.244354 
z"/>
<path fill="#030303" opacity="1.000000" stroke="none" 
	d="
M191.551834,215.405823 
	C193.106949,214.711075 194.319962,214.219620 196.083984,213.504913 
	C194.789932,221.096939 193.573898,228.231277 192.266586,235.901062 
	C196.026520,235.901062 199.567429,235.901062 203.439056,235.901062 
	C202.913681,238.880585 202.486023,241.305969 202.018875,243.955292 
	C198.362610,243.955292 194.892838,243.955292 190.893112,243.955292 
	C189.636459,250.729019 188.376450,257.348022 187.185898,263.979523 
	C185.483704,273.461060 183.752853,282.939117 182.236145,292.450836 
	C181.978500,294.066498 182.733261,295.843597 183.020294,297.546112 
	C184.349899,296.957153 185.637222,296.027802 187.018677,295.856110 
	C189.297668,295.572876 191.637497,295.779205 194.190079,295.779205 
	C188.684967,306.855560 169.544952,311.077820 160.485382,303.644196 
	C155.750580,299.759155 156.343460,294.446716 157.180344,289.342773 
	C159.142075,277.378448 161.385162,265.460327 163.507767,253.522324 
	C164.029938,250.585434 164.526886,247.644073 165.122818,244.199615 
	C162.369644,244.199615 159.828262,244.199615 156.748077,244.199615 
	C157.280746,241.159683 157.715637,238.677811 158.196991,235.930756 
	C161.108505,235.930756 163.728668,235.930756 166.165909,235.930756 
	C166.511353,235.350113 166.811356,235.080399 166.813080,234.808777 
	C166.862396,227.034485 169.687820,221.967010 178.274612,220.663254 
	C182.739182,219.985382 186.907562,217.356598 191.551834,215.405823 
z"/>
<path fill="#030303" opacity="1.000000" stroke="none" 
	d="
M667.491455,284.589539 
	C666.179688,291.864136 664.989258,298.724518 663.761292,305.801453 
	C655.254578,305.801453 646.827271,305.801453 638.169189,305.801453 
	C642.259766,282.581604 646.314636,259.564331 650.389709,236.432434 
	C658.863342,235.803360 667.235474,235.181824 676.080200,234.525208 
	C675.693848,237.536957 675.311401,240.518692 674.852112,244.099579 
	C677.370911,241.706985 679.083801,239.131882 681.476440,238.021896 
	C685.397217,236.202927 689.714050,234.518112 693.947815,234.281998 
	C698.852417,234.008469 702.393066,237.752625 701.749268,242.641449 
	C700.984009,248.452621 698.808105,254.091660 697.026672,259.736877 
	C696.819458,260.393372 695.242126,260.955261 694.284790,260.980347 
	C689.492126,261.105835 684.694458,261.037811 679.332397,261.037811 
	C680.781006,257.416382 682.323975,254.309967 683.196838,251.025482 
	C683.571655,249.614777 682.555176,247.834290 682.170898,246.221786 
	C680.761780,246.882263 678.628723,247.171921 678.067810,248.266937 
	C675.522217,253.236115 672.788086,258.258179 671.318054,263.590942 
	C669.472961,270.284271 668.794678,277.299194 667.491455,284.589539 
z"/>
<path fill="#030303" opacity="1.000000" stroke="none" 
	d="
M305.476685,242.407898 
	C305.904205,240.205963 306.213013,238.419464 306.562347,236.398468 
	C315.016083,235.751602 323.363678,235.112854 332.427612,234.419312 
	C328.231018,258.306152 324.076782,281.951965 319.885284,305.809784 
	C311.403595,305.809784 302.978760,305.809784 294.335663,305.809784 
	C298.035980,284.664551 301.696991,263.743927 305.476685,242.407898 
z"/>
<path fill="#040404" opacity="1.000000" stroke="none" 
	d="
M715.810730,338.009491 
	C715.810730,333.869873 715.810730,330.228027 715.810730,326.109711 
	C721.719116,326.109711 727.521729,325.644531 733.213440,326.239807 
	C738.970276,326.841888 742.511230,332.722717 742.005310,339.368591 
	C741.538025,345.507080 737.586548,349.609894 731.547180,349.969849 
	C728.423584,350.156006 725.279724,350.002563 721.691223,350.002563 
	C721.529968,353.004425 721.382751,355.744904 721.218994,358.793762 
	C719.513489,358.875153 717.940613,358.950165 715.810730,359.051788 
	C715.810730,352.036743 715.810730,345.272003 715.810730,338.009491 
M722.260132,331.606659 
	C721.860840,335.911407 721.461487,340.216125 721.054443,344.604614 
	C722.603333,344.831329 723.228271,344.989685 723.856201,345.002045 
	C725.673096,345.037842 727.495422,345.095306 729.307861,344.999268 
	C733.836548,344.759186 736.126343,342.457153 736.068176,338.216522 
	C736.008911,333.897003 733.718811,331.435425 729.485962,331.038513 
	C727.373474,330.840424 725.211121,331.174469 722.260132,331.606659 
z"/>
<path fill="#0A0A0A" opacity="1.000000" stroke="none" 
	d="
M411.415039,349.942688 
	C411.455688,353.077972 411.455688,355.723816 411.455688,359.448212 
	C409.266907,358.625092 407.306183,357.887787 404.557922,356.854279 
	C399.634308,359.998230 395.277069,359.976044 391.339081,356.030518 
	C387.458923,352.142944 386.797638,345.478516 389.830078,340.822723 
	C393.093994,335.811554 398.104828,334.903351 405.854858,338.069458 
	C405.854858,334.227295 405.854858,330.477661 405.854858,326.385529 
	C407.821777,325.831696 409.647186,325.317719 411.374359,324.831390 
	C411.374359,333.228851 411.374359,341.341064 411.415039,349.942688 
M393.395294,346.027588 
	C394.626343,348.470306 395.359070,351.496429 397.277130,353.134857 
	C398.409851,354.102417 402.111877,353.625885 403.403992,352.436249 
	C404.924042,351.036774 406.046387,347.923004 405.566467,345.994232 
	C405.086639,344.065765 402.316467,341.276093 400.727448,341.387634 
	C398.298431,341.558105 396.021545,343.896057 393.395294,346.027588 
z"/>
<path fill="#090909" opacity="1.000000" stroke="none" 
	d="
M782.436035,349.378784 
	C787.944519,354.362701 791.092712,354.286438 798.366333,349.110199 
	C799.305725,350.319122 800.255676,351.541656 801.159973,352.705475 
	C795.822754,359.854950 786.385315,361.147552 780.076660,355.798431 
	C772.617126,349.473419 772.297058,335.790710 779.447937,328.925171 
	C785.621460,322.998047 795.245544,323.707947 801.069519,330.700531 
	C800.267639,332.021027 799.423706,333.410828 798.613220,334.745453 
	C798.045654,334.587128 797.672119,334.581146 797.427917,334.400391 
	C792.000244,330.382111 787.587891,329.920441 783.934082,333.013611 
	C779.913330,336.417419 779.258545,342.473083 782.436035,349.378784 
z"/>
<path fill="#050505" opacity="1.000000" stroke="none" 
	d="
M316.821167,225.613403 
	C313.051422,224.568100 310.836487,222.725769 310.908234,218.884323 
	C310.986084,214.719025 312.494415,211.163391 316.437439,209.686157 
	C319.445740,208.559113 322.860535,208.151199 326.103271,208.109543 
	C330.032349,208.059082 333.878082,208.998215 334.906952,213.708145 
	C335.882233,218.172668 333.063904,223.556717 328.487518,224.763062 
	C324.897125,225.709518 320.989807,225.453751 316.821167,225.613403 
z"/>
<path fill="#090909" opacity="1.000000" stroke="none" 
	d="
M225.550400,353.115417 
	C225.682312,355.025177 225.765167,356.499207 225.926239,359.364899 
	C223.322021,358.454498 221.396500,357.781372 218.380859,356.727173 
	C212.451309,359.993958 207.903839,359.635406 204.276382,354.665436 
	C200.725189,349.799957 201.351685,342.611267 205.665665,338.724426 
	C210.000168,334.819122 215.113663,335.096313 219.540222,338.817322 
	C221.967896,338.176208 223.785873,337.696106 225.501343,337.243073 
	C225.501343,343.069275 225.501343,347.874481 225.550400,353.115417 
M217.286774,352.949432 
	C220.886124,348.969635 221.017441,344.938202 217.633835,342.293549 
	C214.750320,340.039703 210.268539,340.572357 208.690201,343.969604 
	C207.788452,345.910583 207.687531,348.930725 208.574982,350.837006 
	C210.061203,354.029510 213.178223,354.862335 217.286774,352.949432 
z"/>
<path fill="#090909" opacity="1.000000" stroke="none" 
	d="
M116.043106,346.277710 
	C118.792404,335.608215 126.481499,332.998291 133.682083,338.879395 
	C135.981003,338.151886 137.692078,337.610413 139.599731,337.006714 
	C139.599731,344.564026 139.599731,351.138367 139.599731,359.156464 
	C137.344238,358.385254 135.355179,357.705139 132.352829,356.678589 
	C124.021881,361.710266 116.451935,357.827850 116.043106,346.277710 
M134.075653,347.493195 
	C132.910904,341.763550 128.605591,338.974884 124.854584,342.014313 
	C123.059189,343.469116 121.477806,346.942627 121.971848,348.973358 
	C122.463219,350.993042 125.486046,353.329559 127.742622,353.771393 
	C131.243988,354.456970 133.475479,351.908661 134.075653,347.493195 
z"/>
<path fill="#090909" opacity="1.000000" stroke="none" 
	d="
M338.317993,358.017120 
	C331.532379,353.151489 330.043060,345.956024 334.289825,340.205261 
	C338.185944,334.929443 344.585327,334.638763 349.555939,338.866455 
	C351.892029,338.191010 353.726837,337.660522 355.598694,337.119293 
	C355.598694,344.718201 355.598694,351.313080 355.598694,358.158051 
	C352.867676,359.629150 350.446167,360.050781 350.253937,357.195740 
	C346.020172,357.542786 342.352905,357.843414 338.317993,358.017120 
M341.361786,341.532135 
	C337.597504,343.668549 336.252502,346.763763 338.325012,350.676422 
	C339.898132,353.646423 342.723358,354.848358 345.923767,353.640228 
	C349.301208,352.365204 350.763916,349.528381 349.931702,346.027771 
	C348.971008,341.986694 346.099396,340.472992 341.361786,341.532135 
z"/>
<path fill="#090909" opacity="1.000000" stroke="none" 
	d="
M509.051422,342.390259 
	C514.084167,334.761780 519.634705,333.995209 525.611694,338.810944 
	C528.040771,338.108704 529.758606,337.612091 531.603699,337.078674 
	C531.603699,344.614380 531.603699,351.197998 531.603699,359.246033 
	C529.291809,358.383392 527.296143,357.638763 524.499390,356.595184 
	C521.649536,359.138550 517.376282,360.466644 512.633972,357.040283 
	C508.429321,354.002319 507.138855,349.082916 509.051422,342.390259 
M524.978271,343.732422 
	C522.540039,340.663605 519.168030,339.597412 516.438110,342.303680 
	C514.730347,343.996643 513.594421,347.765869 514.292725,349.928131 
	C514.888123,351.771637 518.430054,353.648254 520.737732,353.738342 
	C524.879028,353.900055 526.597717,349.896576 524.978271,343.732422 
z"/>
<path fill="#090909" opacity="1.000000" stroke="none" 
	d="
M596.677979,358.947113 
	C590.145874,358.520599 586.379211,355.530731 585.195190,350.210327 
	C584.117859,345.368896 586.234619,340.002075 590.170532,337.596497 
	C594.548767,334.920441 598.600098,335.497589 602.550659,338.892059 
	C604.801636,338.212799 606.648132,337.655579 608.602539,337.065826 
	C608.602539,344.656403 608.602539,351.244080 608.602539,358.075928 
	C605.755127,360.106659 603.766785,359.309174 602.959229,355.698944 
	C600.829041,356.853943 598.953918,357.870667 596.677979,358.947113 
M598.141296,341.059082 
	C596.707886,341.303558 595.078735,341.195984 593.879944,341.862427 
	C590.981201,343.473907 589.671204,346.077301 590.772156,349.396210 
	C591.831482,352.589813 594.326050,354.825439 597.490479,353.760223 
	C599.694397,353.018311 602.593079,350.348877 602.700256,348.403778 
	C602.827576,346.093292 600.295044,343.636230 598.141296,341.059082 
z"/>
<path fill="#070707" opacity="1.000000" stroke="none" 
	d="
M146.533188,345.071777 
	C146.238632,342.462250 145.960556,340.334381 145.578278,337.408997 
	C148.167114,337.675385 150.248154,337.889496 152.329193,338.103638 
	C152.317551,338.489075 152.305908,338.874481 152.294250,339.259918 
	C153.712341,338.436523 155.070053,337.477692 156.559265,336.813873 
	C162.161057,334.316925 166.699509,336.994232 166.951035,343.102936 
	C167.162430,348.237030 166.994492,353.386810 166.994492,358.768372 
	C165.169571,358.768372 163.589096,358.768372 161.639893,358.768372 
	C161.639893,354.614960 161.684875,350.488342 161.624420,346.363251 
	C161.582626,343.511108 161.030594,340.686554 157.317032,341.106812 
	C154.209244,341.458557 151.630295,342.715271 151.884628,346.782043 
	C152.131729,350.733185 151.938263,354.711853 151.938263,358.839355 
	C150.084457,358.839355 148.635956,358.839355 146.549683,358.839355 
	C146.549683,354.383789 146.549683,349.968628 146.533188,345.071777 
z"/>
<path fill="#070707" opacity="1.000000" stroke="none" 
	d="
M296.937744,347.360443 
	C296.937683,351.453278 296.937683,355.087494 296.937683,358.858582 
	C295.053101,358.858582 293.596344,358.858582 291.458679,358.858582 
	C291.458679,352.062378 291.458679,345.325867 291.458679,337.656555 
	C293.115448,337.773987 295.250488,337.925354 297.385559,338.076691 
	C297.366089,338.447327 297.346588,338.817993 297.327087,339.188629 
	C298.921112,338.317566 300.444489,337.266174 302.122284,336.608978 
	C307.362579,334.556213 311.643799,337.129761 311.919586,342.709991 
	C312.181213,348.003326 311.975830,353.319794 311.975830,358.815430 
	C310.098511,358.815430 308.515869,358.815430 306.642609,358.815430 
	C306.642609,354.692139 306.685913,350.716919 306.627686,346.743195 
	C306.587524,344.004150 306.445618,340.925751 302.691498,341.108734 
	C299.356781,341.271332 296.452240,342.593506 296.937744,347.360443 
z"/>
<path fill="#070707" opacity="1.000000" stroke="none" 
	d="
M362.591064,346.037964 
	C362.287354,343.093903 362.025146,340.635864 361.678101,337.382812 
	C364.202393,337.671204 366.285614,337.909241 368.368835,338.147247 
	C368.340759,338.504272 368.312714,338.861298 368.284637,339.218323 
	C369.872559,338.345703 371.390961,337.298676 373.061310,336.632782 
	C378.289948,334.548462 382.626099,337.092834 382.912476,342.638550 
	C383.185791,347.931458 382.971375,353.249573 382.971375,358.781860 
	C381.144470,358.781860 379.561493,358.781860 377.643402,358.781860 
	C377.643402,355.097778 377.714081,351.463043 377.621063,347.832489 
	C377.546753,344.933075 378.198425,341.429291 373.776123,341.047546 
	C370.165588,340.735809 367.962860,343.379578 367.941376,347.806274 
	C367.923767,351.438049 367.937805,355.070007 367.937805,358.850891 
	C366.064880,358.850891 364.611267,358.850891 362.632538,358.850891 
	C362.632538,354.700226 362.632538,350.612091 362.591064,346.037964 
z"/>
<path fill="#070707" opacity="1.000000" stroke="none" 
	d="
M685.238647,341.033142 
	C680.921570,341.903687 679.479614,344.248627 679.868713,348.242950 
	C680.202393,351.667847 679.937805,355.151093 679.937805,358.790710 
	C678.006592,358.790710 676.441406,358.790710 674.343140,358.790710 
	C674.343140,351.826355 674.343140,345.069611 674.343140,337.503662 
	C676.251160,337.688721 678.442932,337.901337 680.634644,338.113953 
	C680.604187,338.433685 680.573669,338.753448 680.543213,339.073212 
	C682.136597,338.212952 683.656128,337.153442 685.337280,336.529846 
	C690.384460,334.657715 694.587524,337.116577 694.887512,342.392700 
	C695.196167,347.821411 694.956055,353.281342 694.956055,358.791534 
	C693.039429,358.791534 691.463318,358.791534 689.638550,358.791534 
	C689.638550,354.446716 689.691467,350.317047 689.619446,346.189545 
	C689.573486,343.557007 689.076843,341.132141 685.238647,341.033142 
z"/>
<path fill="#060606" opacity="1.000000" stroke="none" 
	d="
M70.456680,330.147308 
	C70.745705,328.590759 71.005447,327.464050 71.304932,326.164917 
	C78.703026,326.164917 86.131653,326.164917 93.839264,326.164917 
	C93.839264,327.666931 93.839264,329.070374 93.839264,330.807709 
	C91.220490,330.933685 88.462311,331.066376 85.497459,331.209015 
	C85.497459,340.438080 85.497459,349.494873 85.497459,358.777191 
	C83.383133,358.777191 81.485657,358.777191 79.488068,358.777191 
	C79.488068,349.526917 79.488068,340.464111 79.488068,331.303528 
	C76.306404,331.048462 73.366898,330.812805 70.456680,330.147308 
z"/>
<path fill="#0A0A0A" opacity="1.000000" stroke="none" 
	d="
M269.386444,357.960785 
	C263.108246,353.339935 261.411041,348.359406 263.887329,342.768127 
	C266.080750,337.815582 271.390839,335.032715 276.552795,336.130554 
	C282.880463,337.476318 286.651550,343.745972 285.319519,350.182068 
	C284.052643,356.303345 276.512451,361.300049 269.386444,357.960785 
M280.006561,344.570740 
	C277.489166,343.443909 274.986084,341.538757 272.448822,341.492218 
	C271.006805,341.465790 268.542297,344.346985 268.292358,346.160492 
	C268.009644,348.212036 269.099365,351.334076 270.688354,352.511749 
	C272.245728,353.665985 276.153229,353.953949 277.287170,352.843384 
	C279.058685,351.108307 279.361298,347.873474 280.006561,344.570740 
z"/>
<path fill="#0A0A0A" opacity="1.000000" stroke="none" 
	d="
M470.837494,335.984131 
	C477.600952,337.562714 480.837280,340.669983 481.562744,345.891357 
	C482.205536,350.517700 479.763184,355.609406 475.684906,357.657776 
	C471.290833,359.864777 466.981232,359.648041 463.098114,356.436646 
	C459.231995,353.239288 458.136902,349.025085 459.315216,344.287201 
	C460.554291,339.304871 464.301483,336.626007 470.837494,335.984131 
M463.966156,346.678528 
	C463.841370,351.033691 465.838440,353.790405 470.269409,353.921753 
	C473.923889,354.030090 476.691681,351.681641 476.345673,348.195282 
	C476.104248,345.762787 474.117767,342.469635 472.011444,341.485229 
	C468.353424,339.775635 465.370911,341.936859 463.966156,346.678528 
z"/>
<path fill="#0A0A0A" opacity="1.000000" stroke="none" 
	d="
M663.758850,337.992371 
	C667.340759,340.954742 669.077576,344.384216 668.558472,348.734314 
	C667.747192,355.531281 661.585571,360.155792 655.077087,358.895081 
	C648.851868,357.689209 644.749451,351.250183 646.143677,344.873474 
	C647.579346,338.307373 654.123718,334.573883 660.721436,336.597595 
	C661.658386,336.885010 662.527161,337.394531 663.758850,337.992371 
M650.932983,347.467926 
	C651.153687,351.355347 653.227234,354.103302 657.044495,353.775360 
	C659.192871,353.590820 661.876953,351.646759 663.033875,349.722382 
	C664.945435,346.542572 662.805542,342.574188 659.301453,341.337646 
	C655.518616,340.002777 652.681824,341.817657 650.932983,347.467926 
z"/>
<path fill="#020202" opacity="1.000000" stroke="none" 
	d="
M753.581299,326.144806 
	C754.016541,335.344757 754.016541,344.416565 754.016541,353.906006 
	C759.925110,353.906006 764.990173,353.906006 770.475098,353.906006 
	C770.373596,355.741180 770.296753,357.130585 770.206970,358.753479 
	C763.031616,358.753479 756.131287,358.753479 748.892456,358.753479 
	C748.892456,348.147522 748.892456,337.450714 748.892456,326.260895 
	C750.374451,326.175812 751.760254,326.096252 753.581299,326.144806 
z"/>
<path fill="#020202" opacity="1.000000" stroke="none" 
	d="
M435.868347,326.001038 
	C439.206329,325.492950 439.517639,327.094147 439.485107,329.461517 
	C439.375549,337.437592 439.443420,345.416107 439.443420,353.852356 
	C444.885895,353.852356 449.959381,353.852356 455.446594,353.852356 
	C455.358459,355.726288 455.292908,357.120514 455.216156,358.751862 
	C448.002533,358.751862 441.075409,358.751862 433.961212,358.751862 
	C433.961212,348.201080 433.948029,337.594604 434.022156,326.988770 
	C434.024475,326.657196 434.928680,326.331909 435.868347,326.001038 
z"/>
<path fill="#0B0B0B" opacity="1.000000" stroke="none" 
	d="
M230.224304,340.892487 
	C231.475815,336.811523 232.833344,333.144287 234.313690,329.145325 
	C235.262558,329.379211 236.847412,329.769867 238.596222,330.200958 
	C238.596222,332.383148 238.596222,334.488373 238.596222,336.770355 
	C240.705490,336.896576 242.659103,337.013519 244.810364,337.142242 
	C244.810364,339.016174 244.810364,340.759247 244.810364,342.966217 
	C242.810852,342.689514 240.950012,342.431976 239.098465,342.175751 
	C236.334885,351.634399 237.944382,354.746338 245.021851,353.132782 
	C245.519974,355.838501 246.111313,358.313934 242.189713,358.970001 
	C236.985931,359.840515 233.636124,358.358246 233.215714,354.417847 
	C232.900330,351.462036 233.560165,348.390961 233.146362,345.461578 
	C232.936188,343.973572 231.314117,342.684967 230.224304,340.892487 
z"/>
<path fill="#0B0B0B" opacity="1.000000" stroke="none" 
	d="
M623.606812,353.939026 
	C625.307556,353.677032 626.583374,353.386078 628.047607,353.052155 
	C628.590515,355.957794 628.887146,358.416656 625.037842,358.990662 
	C619.742615,359.780334 616.601746,358.284637 616.182434,354.267120 
	C615.908081,351.637573 616.466614,348.915039 616.134644,346.299866 
	C615.937744,344.748932 614.656494,343.358887 614.013123,341.833099 
	C613.597290,340.846924 613.092590,338.883423 613.240112,338.821777 
	C617.957947,336.847839 615.140625,332.371552 616.576111,328.925995 
	C618.268982,329.371368 619.948303,329.813171 621.638184,330.257751 
	C621.638184,332.479950 621.638184,334.454132 621.638184,336.732239 
	C623.590942,336.867401 625.518005,337.000763 627.731384,337.153961 
	C627.731384,339.019531 627.731384,340.883942 627.731384,343.057953 
	C625.759277,342.719757 624.014343,342.420532 621.479309,341.985840 
	C621.857544,346.156677 619.254028,350.291473 623.606812,353.939026 
z"/>
<path fill="#070707" opacity="1.000000" stroke="none" 
	d="
M576.699707,336.987732 
	C580.569153,337.910461 581.117371,340.070679 578.413696,343.222595 
	C575.430115,346.700836 572.182190,349.952332 568.482605,353.908691 
	C572.974609,353.908691 576.714417,353.908691 580.821899,353.908691 
	C580.434021,355.775299 580.143555,357.172974 579.808228,358.786377 
	C574.028870,358.786377 568.262817,358.786377 561.934082,358.786377 
	C561.111389,350.392578 570.104919,348.410767 572.774048,342.047760 
	C569.560364,342.047760 566.487610,342.047760 562.996155,342.047760 
	C563.268616,340.238678 563.477173,338.853760 563.758301,336.987579 
	C568.021118,336.987579 572.129395,336.987579 576.699707,336.987732 
z"/>
<path fill="#0A0A0A" opacity="1.000000" stroke="none" 
	d="
M493.864746,336.458069 
	C496.217529,336.339233 498.220245,336.094086 500.141479,336.385742 
	C503.139191,336.840881 504.680328,338.359772 502.135956,340.207184 
	C498.811737,341.596222 495.170166,342.548859 492.334900,344.610382 
	C491.338867,345.334564 491.586304,349.195007 492.549255,350.897522 
	C494.711334,354.720123 498.524414,354.479950 502.363007,353.185486 
	C504.416687,356.739532 502.878601,358.181152 499.423981,358.823639 
	C493.864990,359.857513 488.238251,356.607758 486.443909,351.183258 
	C484.464447,345.199158 486.980042,339.973969 493.864746,336.458069 
z"/>
<path fill="#0C0C0C" opacity="1.000000" stroke="none" 
	d="
M109.338913,337.044617 
	C114.330727,336.734192 112.795021,339.431763 112.240501,341.735870 
	C104.863235,342.376495 104.861488,342.376495 104.848518,349.711975 
	C104.843300,352.663452 104.847656,355.614929 104.847656,358.790527 
	C103.057564,358.790527 101.633377,358.790527 99.455734,358.790527 
	C99.455734,351.666595 99.455734,344.503357 99.455734,336.601044 
	C100.976334,336.800323 102.945320,337.058350 104.914314,337.316406 
	C104.867752,337.770050 104.821198,338.223694 104.774635,338.677338 
	C106.161354,338.152222 107.548073,337.627136 109.338913,337.044617 
z"/>
<path fill="#0B0B0B" opacity="1.000000" stroke="none" 
	d="
M180.144806,344.888000 
	C184.221359,346.861664 186.417160,349.700928 184.892609,353.858215 
	C183.281982,358.250275 179.451141,359.225372 174.803345,358.925964 
	C174.523880,357.483917 174.253311,356.087830 173.969421,354.622986 
	C174.555298,354.375580 174.982559,354.171143 175.426102,354.012207 
	C177.037445,353.435089 178.654205,352.873108 180.268936,352.305450 
	C179.147415,351.074890 178.226929,349.515259 176.862747,348.681946 
	C173.975174,346.918060 171.787537,344.384003 173.446930,341.398132 
	C174.916565,338.753693 178.047211,337.032349 181.321213,334.125000 
	C182.363800,337.342590 182.841537,338.816956 183.344116,340.368011 
	C181.395309,341.001251 179.746735,341.536957 177.626740,342.225830 
	C178.576019,343.313629 179.189789,344.016998 180.144806,344.888000 
z"/>
<path fill="#000000" opacity="1.000000" stroke="none" 
	d="
M195.709595,358.612946 
	C193.896835,358.944153 192.438385,358.944153 190.798462,358.944153 
	C190.798462,347.878387 190.798462,337.167267 190.798462,326.229431 
	C192.466537,326.229431 193.907700,326.229431 196.063919,326.229431 
	C196.063919,336.815857 196.063919,347.548798 195.709595,358.612946 
z"/>
<path fill="#000000" opacity="1.000000" stroke="none" 
	d="
M537.663696,344.997559 
	C537.668091,338.531616 537.668091,332.564728 537.668091,326.301147 
	C539.418213,326.301147 540.973755,326.301147 542.849731,326.301147 
	C542.849731,337.023804 542.849731,347.743530 542.849731,358.731842 
	C541.300842,358.731842 539.727844,358.731842 537.659241,358.731842 
	C537.659241,354.318970 537.659241,349.907806 537.663696,344.997559 
z"/>
<path fill="#050505" opacity="1.000000" stroke="none" 
	d="
M637.198853,336.992004 
	C638.440002,337.850769 639.875610,338.689575 639.903259,339.572479 
	C640.099609,345.840698 640.007874,352.117889 640.007874,358.699219 
	C638.199158,358.699219 636.507263,358.699219 634.556824,358.699219 
	C634.556824,352.019226 634.496948,345.436340 634.652222,338.858490 
	C634.667236,338.220398 636.013428,337.613708 637.198853,336.992004 
z"/>
<path fill="#050505" opacity="1.000000" stroke="none" 
	d="
M550.543823,350.916687 
	C550.543945,346.150574 550.543945,341.866577 550.543945,337.261108 
	C552.366638,337.141235 553.936035,337.038025 555.802612,336.915283 
	C555.802612,344.314392 555.802612,351.506927 555.802612,358.850677 
	C554.062622,358.850677 552.467346,358.850677 550.543762,358.850677 
	C550.543762,356.264343 550.543762,353.831604 550.543823,350.916687 
z"/>
<path fill="#050505" opacity="1.000000" stroke="none" 
	d="
M257.010864,351.932190 
	C257.012970,354.394135 257.012970,356.365936 257.012970,358.671570 
	C255.239532,358.671570 253.547287,358.671570 251.586029,358.671570 
	C251.586029,351.615570 251.586029,344.571747 251.586029,337.221832 
	C253.398315,337.124695 254.967010,337.040588 257.008789,336.931152 
	C257.008789,341.927429 257.008789,346.684692 257.010864,351.932190 
z"/>
<path fill="#111111" opacity="1.000000" stroke="none" 
	d="
M555.196838,333.662598 
	C553.242188,333.234131 551.611267,332.588989 549.980286,331.943817 
	C550.440674,330.817444 550.616150,329.106628 551.431763,328.709106 
	C552.508911,328.184143 554.985535,328.255524 555.267090,328.839233 
	C555.883911,330.117981 555.497314,331.880737 555.196838,333.662598 
z"/>
<path fill="#111111" opacity="1.000000" stroke="none" 
	d="
M253.146088,333.952881 
	C252.302948,332.396667 251.414520,330.845581 251.611359,329.447266 
	C251.696350,328.843445 254.225662,327.947784 255.276764,328.295715 
	C256.314972,328.639496 256.888977,330.385406 257.666626,331.516205 
	C256.291382,332.350800 254.916107,333.185394 253.146088,333.952881 
z"/>
<path fill="#111111" opacity="1.000000" stroke="none" 
	d="
M639.751648,329.040253 
	C639.631592,330.831757 639.642822,332.743469 638.693115,333.732758 
	C638.138184,334.310883 635.767944,333.795807 634.750000,333.045715 
	C634.100647,332.567169 634.080261,329.816376 634.380554,329.704651 
	C635.975037,329.111603 637.760193,329.031097 639.751648,329.040253 
z"/>
<path fill="#FAFAFA" opacity="1.000000" stroke="none" 
	d="
M387.356262,270.360748 
	C385.503937,277.855927 383.933929,284.983337 381.906097,291.978058 
	C381.142365,294.612457 379.628937,297.199127 377.864227,299.312317 
	C376.747528,300.649567 374.217987,302.069641 372.895081,301.649323 
	C371.276398,301.134979 369.184998,298.750092 369.161774,297.147034 
	C369.054138,289.724976 368.842194,282.164978 370.087097,274.897552 
	C371.701721,265.472076 374.415619,256.203339 377.169739,247.021149 
	C378.184204,243.638901 380.366333,239.613754 384.713776,240.262238 
	C389.392029,240.960083 389.328827,245.591385 389.196106,249.113419 
	C388.934082,256.067657 388.071014,262.999268 387.356262,270.360748 
z"/>
<path fill="#F9F9F9" opacity="1.000000" stroke="none" 
	d="
M593.991699,282.908997 
	C592.591125,286.858612 591.768311,290.762665 589.670898,293.781067 
	C588.447754,295.541290 585.090088,296.754761 582.878174,296.513672 
	C581.693848,296.384583 580.151367,292.685455 580.057617,290.541107 
	C579.525269,278.363770 585.072021,269.865204 597.036133,265.311798 
	C596.036682,271.031830 595.035461,276.761719 593.991699,282.908997 
z"/>
<path fill="#F3F3F3" opacity="1.000000" stroke="none" 
	d="
M722.665710,331.437256 
	C725.211121,331.174469 727.373474,330.840424 729.485962,331.038513 
	C733.718811,331.435425 736.008911,333.897003 736.068176,338.216522 
	C736.126343,342.457153 733.836548,344.759186 729.307861,344.999268 
	C727.495422,345.095306 725.673096,345.037842 723.856201,345.002045 
	C723.228271,344.989685 722.603333,344.831329 721.054443,344.604614 
	C721.461487,340.216125 721.860840,335.911407 722.665710,331.437256 
z"/>
<path fill="#F6F6F6" opacity="1.000000" stroke="none" 
	d="
M393.537689,345.670715 
	C396.021545,343.896057 398.298431,341.558105 400.727448,341.387634 
	C402.316467,341.276093 405.086639,344.065765 405.566467,345.994232 
	C406.046387,347.923004 404.924042,351.036774 403.403992,352.436249 
	C402.111877,353.625885 398.409851,354.102417 397.277130,353.134857 
	C395.359070,351.496429 394.626343,348.470306 393.537689,345.670715 
z"/>
<path fill="#F6F6F6" opacity="1.000000" stroke="none" 
	d="
M216.943573,353.151093 
	C213.178223,354.862335 210.061203,354.029510 208.574982,350.837006 
	C207.687531,348.930725 207.788452,345.910583 208.690201,343.969604 
	C210.268539,340.572357 214.750320,340.039703 217.633835,342.293549 
	C221.017441,344.938202 220.886124,348.969635 216.943573,353.151093 
z"/>
<path fill="#F6F6F6" opacity="1.000000" stroke="none" 
	d="
M134.072021,347.895752 
	C133.475479,351.908661 131.243988,354.456970 127.742622,353.771393 
	C125.486046,353.329559 122.463219,350.993042 121.971848,348.973358 
	C121.477806,346.942627 123.059189,343.469116 124.854584,342.014313 
	C128.605591,338.974884 132.910904,341.763550 134.072021,347.895752 
z"/>
<path fill="#F6F6F6" opacity="1.000000" stroke="none" 
	d="
M341.702087,341.346497 
	C346.099396,340.472992 348.971008,341.986694 349.931702,346.027771 
	C350.763916,349.528381 349.301208,352.365204 345.923767,353.640228 
	C342.723358,354.848358 339.898132,353.646423 338.325012,350.676422 
	C336.252502,346.763763 337.597504,343.668549 341.702087,341.346497 
z"/>
<path fill="#F6F6F6" opacity="1.000000" stroke="none" 
	d="
M525.206787,344.063965 
	C526.597717,349.896576 524.879028,353.900055 520.737732,353.738342 
	C518.430054,353.648254 514.888123,351.771637 514.292725,349.928131 
	C513.594421,347.765869 514.730347,343.996643 516.438110,342.303680 
	C519.168030,339.597412 522.540039,340.663605 525.206787,344.063965 
z"/>
<path fill="#F6F6F6" opacity="1.000000" stroke="none" 
	d="
M598.528198,341.150879 
	C600.295044,343.636230 602.827576,346.093292 602.700256,348.403778 
	C602.593079,350.348877 599.694397,353.018311 597.490479,353.760223 
	C594.326050,354.825439 591.831482,352.589813 590.772156,349.396210 
	C589.671204,346.077301 590.981201,343.473907 593.879944,341.862427 
	C595.078735,341.195984 596.707886,341.303558 598.528198,341.150879 
z"/>
<path fill="#F6F6F6" opacity="1.000000" stroke="none" 
	d="
M280.146423,344.922363 
	C279.361298,347.873474 279.058685,351.108307 277.287170,352.843384 
	C276.153229,353.953949 272.245728,353.665985 270.688354,352.511749 
	C269.099365,351.334076 268.009644,348.212036 268.292358,346.160492 
	C268.542297,344.346985 271.006805,341.465790 272.448822,341.492218 
	C274.986084,341.538757 277.489166,343.443909 280.146423,344.922363 
z"/>
<path fill="#F6F6F6" opacity="1.000000" stroke="none" 
	d="
M464.016602,346.280762 
	C465.370911,341.936859 468.353424,339.775635 472.011444,341.485229 
	C474.117767,342.469635 476.104248,345.762787 476.345673,348.195282 
	C476.691681,351.681641 473.923889,354.030090 470.269409,353.921753 
	C465.838440,353.790405 463.841370,351.033691 464.016602,346.280762 
z"/>
<path fill="#F6F6F6" opacity="1.000000" stroke="none" 
	d="
M650.949524,347.069092 
	C652.681824,341.817657 655.518616,340.002777 659.301453,341.337646 
	C662.805542,342.574188 664.945435,346.542572 663.033875,349.722382 
	C661.876953,351.646759 659.192871,353.590820 657.044495,353.775360 
	C653.227234,354.103302 651.153687,351.355347 650.949524,347.069092 
z"/>
</svg>